<?xml version="1.0" encoding="UTF-8"?>
<svg version="1.1" xmlns="http://www.w3.org/2000/svg" width="32" height="32">
<path d="M0 0 C10.56 0 21.12 0 32 0 C32 10.56 32 21.12 32 32 C21.44 32 10.88 32 0 32 C0 21.44 0 10.88 0 0 Z " fill="#202523" transform="translate(0,0)"/>
<path d="M0 0 C0.8971875 0.309375 0.8971875 0.309375 1.8125 0.625 C1.503125 1.8625 1.19375 3.1 0.875 4.375 C-0.40718812 10.07664503 -0.81320547 15.80373504 -1.1875 21.625 C-2.5075 21.295 -3.8275 20.965 -5.1875 20.625 C-5.1875 17.655 -5.1875 14.685 -5.1875 11.625 C-6.8375 11.955 -8.4875 12.285 -10.1875 12.625 C-11.1775 15.595 -12.1675 18.565 -13.1875 21.625 C-14.1775 21.295 -15.1675 20.965 -16.1875 20.625 C-15.8575 19.696875 -15.5275 18.76875 -15.1875 17.8125 C-14.03782996 14.70470709 -14.03782996 14.70470709 -14.1875 11.625 C-12.56647032 9.91391311 -10.89246537 8.25246694 -9.1875 6.625 C-8.135625 5.2946875 -8.135625 5.2946875 -7.0625 3.9375 C-3.39766949 -0.58245763 -3.39766949 -0.58245763 0 0 Z " fill="#039C4F" transform="translate(28.1875,5.375)"/>
<path d="M0 0 C4.95 0 9.9 0 15 0 C15 0.66 15 1.32 15 2 C14.22011719 2.0721875 13.44023437 2.144375 12.63671875 2.21875 C9.87521603 2.72841704 9.87521603 2.72841704 8.70703125 4.96875 C8.41183594 5.8040625 8.11664063 6.639375 7.8125 7.5 C7.49410156 8.39460937 7.17570313 9.28921875 6.84765625 10.2109375 C5.66153295 14.11366578 4.77511942 17.99521631 4 22 C3.01 21.67 2.02 21.34 1 21 C1.48969295 14.38914524 3.33442742 9.05022986 6 3 C4.02 3 2.04 3 0 3 C0 2.01 0 1.02 0 0 Z " fill="#029D50" transform="translate(2,5)"/>
<path d="M0 0 C0.99 0.33 1.98 0.66 3 1 C2.47731534 3.76276177 1.89130413 6.3260876 1 9 C-0.98 9 -2.96 9 -5 9 C-5.99 12.63 -6.98 16.26 -8 20 C-8.99 19.67 -9.98 19.34 -11 19 C-10.67 18.071875 -10.34 17.14375 -10 16.1875 C-8.85032996 13.07970709 -8.85032996 13.07970709 -9 10 C-7.37897032 8.28891311 -5.70496537 6.62746694 -4 5 C-2.64444707 3.35135455 -1.30368347 1.68996005 0 0 Z " fill="#05934C" transform="translate(23,7)"/>
<path d="M0 0 C1.125 3.75 1.125 3.75 0 6 C-1.32 6 -2.64 6 -4 6 C-2.84826645 3.53199953 -1.95216435 1.95216435 0 0 Z " fill="#202623" transform="translate(24,9)"/>
</svg>
